<?xml version="1.0" standalone="no"?>
<!DOCTYPE svg PUBLIC "-//W3C//DTD SVG 20010904//EN"
 "http://www.w3.org/TR/2001/REC-SVG-20010904/DTD/svg10.dtd">
<svg version="1.0" xmlns="http://www.w3.org/2000/svg"
 width="512.000000pt" height="512.000000pt" viewBox="0 0 512.000000 512.000000"
 preserveAspectRatio="xMidYMid meet">

<g transform="translate(0.000000,512.000000) scale(0.100000,-0.100000)"
fill="#000000" stroke="none">
<path d="M1453 4146 c-478 -91 -729 -457 -969 -1408 -100 -399 -151 -722 -161
-1018 -17 -519 108 -781 363 -757 169 16 353 160 632 494 109 130 162 177 247
218 142 70 419 90 1154 82 528 -6 623 -12 746 -48 138 -41 199 -89 383 -304
258 -302 423 -426 584 -442 202 -18 321 135 358 462 42 371 -46 972 -237 1615
-171 579 -365 886 -648 1026 -133 65 -224 86 -375 87 -120 0 -134 -2 -341 -56
-314 -82 -375 -91 -629 -91 -244 0 -315 10 -566 75 -87 23 -186 48 -219 55
-94 21 -240 25 -322 10z m2119 -656 c104 -29 166 -155 127 -257 -14 -38 -67
-92 -106 -109 -82 -35 -186 -2 -234 74 -66 105 -18 246 97 287 48 17 68 18
116 5z m-2121 -257 c80 -39 150 -111 187 -191 24 -50 27 -69 27 -162 0 -97 -2
-110 -31 -170 -115 -239 -418 -300 -614 -124 -220 199 -146 567 133 666 39 14
75 18 142 16 79 -3 99 -7 156 -35z m1722 -177 c41 -17 91 -74 107 -121 40
-122 -55 -249 -185 -248 -161 1 -246 182 -148 312 47 62 151 89 226 57z m876
-19 c52 -34 81 -91 81 -156 0 -61 -13 -97 -48 -134 -39 -42 -80 -60 -137 -61
-124 -1 -215 111 -191 237 8 41 68 114 110 133 49 22 136 13 185 -19z m-436
-415 c103 -60 130 -203 54 -289 -77 -87 -197 -95 -278 -18 -79 74 -80 204 -1
278 60 57 156 70 225 29z"/>
</g>
</svg>
